<svg version="1.2" xmlns="http://www.w3.org/2000/svg" viewBox="0 0 480 390" width="480" height="390">
	<title>hover</title>
	<defs>
		<linearGradient id="g1" x1="240" y1="390" x2="240" y2="0" gradientUnits="userSpaceOnUse">
			<stop offset="0" stop-color="#f1e390"/>
			<stop offset="1" stop-color="#ea8b89"/>
		</linearGradient>
	</defs>
	<style>
		.s0 { fill: url(#g1) } 
		.s1 { fill: #ffffff } 
	</style>
	<g id="hover">
		<path id="Rectangle 17 copy 2" class="s0" d="m0 0h480v390h-480z"/>
		<path id="creatively designed" class="s1" aria-label="creatively designed"  d="m161.4 220.1c1.5 0 2.8-0.5 3.6-1.5l-0.6-0.6c-0.8 0.8-1.8 1.2-2.9 1.2-2.4 0-4.2-1.8-4.2-4.1 0-2.3 1.8-4.1 4.2-4.1 1.1 0 2.1 0.4 2.9 1.2l0.6-0.7c-0.8-0.9-2.1-1.4-3.6-1.4-2.9 0-5.1 2.1-5.1 5 0 2.9 2.2 5 5.1 5zm13.7-0.1l-2.4-3.4c1.4-0.4 2.2-1.5 2.2-3 0-2.1-1.5-3.4-4-3.4h-3.7v9.8h1.1v-3.1h2.6c0.3 0 0.5 0 0.8-0.1l2.2 3.2zm-4.2-4h-2.6v-4.9h2.6c2 0 3 0.9 3 2.5 0 1.5-1 2.4-3 2.4zm7.6 3.1v-3.6h5v-0.9h-5v-3.5h5.6v-0.9h-6.7v9.8h7v-0.9zm15.6 0.9h1.1l-4.5-9.8h-1l-4.5 9.8h1.1l1.2-2.6h5.4zm-6.2-3.5l2.3-5.2 2.4 5.2zm10.4 3.5h1v-8.9h3.4v-0.9h-7.9v0.9h3.5zm6.1 0h1v-9.8h-1zm11.2-9.8l-3.8 8.5-3.7-8.5h-1.1l4.3 9.8h1l4.4-9.8zm3.5 8.9v-3.7h5v-0.8h-5v-3.5h5.6v-0.9h-6.7v9.8h7v-0.9zm8.3 0.9h6.5v-0.9h-5.5v-8.9h-1zm14.5-9.8h-1.1l-3.3 5.5-3.4-5.5h-1.1l3.9 6.4v3.4h1.1v-3.4zm5.2 9.8h4c3.2 0 5.3-2 5.3-4.9 0-2.9-2.1-4.9-5.3-4.9h-4zm1.1-0.9v-8h2.9c2.6 0 4.2 1.6 4.2 4 0 2.3-1.6 4-4.2 4zm11.5 0v-3.6h5.1v-0.9h-5.1v-3.5h5.7v-0.9h-6.7v9.8h6.9v-0.9zm11.1 1c2.5 0 3.6-1.3 3.6-2.7 0-3.6-6-1.9-6-4.6 0-1 0.8-1.8 2.6-1.8 0.8 0 1.8 0.3 2.7 0.8l0.3-0.8c-0.8-0.6-1.9-0.9-3-0.9-2.5 0-3.6 1.3-3.6 2.7 0 3.6 6 2 6 4.7 0 0.9-0.8 1.7-2.6 1.7-1.3 0-2.6-0.5-3.3-1.2l-0.4 0.8c0.7 0.8 2.2 1.3 3.7 1.3zm5.9-0.1h1v-9.8h-1zm11.1-1.6c-0.8 0.5-1.6 0.7-2.6 0.7-2.4 0-4.2-1.7-4.2-4 0-2.3 1.8-4.1 4.2-4.1 1.2 0 2.2 0.4 3 1.2l0.6-0.7c-0.8-0.9-2.1-1.4-3.6-1.4-3 0-5.2 2.1-5.2 5 0 2.9 2.2 5 5.2 5 1.3 0 2.7-0.4 3.6-1.3v-3.7h-1zm11.1-8.2v7.9l-6.3-7.9h-0.9v9.8h1v-8l6.3 8h0.9v-9.8zm5.3 8.9v-3.7h5v-0.8h-5v-3.5h5.6v-0.9h-6.7v9.8h6.9v-0.9zm8.4 0.9h4c3.1 0 5.2-2 5.2-4.9 0-2.9-2.1-4.9-5.2-4.9h-4zm1-0.9v-8h2.9c2.6 0 4.3 1.6 4.3 4 0 2.3-1.7 4-4.3 4z"/>
		<path id="Lorem ipsum dolor sit" class="s1" aria-label="Lorem ipsum dolor sit"  d="m173 238.3l-1.7 9.9h5.1l-0.1 0.8h-6l1.8-10.7zm5 6.9v-0.2q0.1-1.2 0.7-2.1 0.6-1 1.4-1.5 0.9-0.5 1.9-0.5 1 0 1.7 0.6 0.7 0.5 1 1.4 0.3 0.9 0.2 2v0.1q-0.2 1.9-1.4 3-1.1 1.2-2.6 1.1-1.4 0-2.1-0.9-0.8-1-0.8-2.6zm0.9-0.1l-0.1 0.1q-0.1 0.9 0.2 1.6 0.2 0.8 0.7 1.2 0.5 0.4 1.2 0.4 0.8 0 1.4-0.4 0.7-0.4 1.1-1.2 0.5-0.7 0.6-1.6v-0.3q0.1-1.4-0.4-2.3-0.6-0.9-1.7-0.9-1.2 0-2 0.9-0.9 0.9-1 2.5zm12.1-4.1l-0.2 0.8q-0.2 0-0.5 0-0.9 0-1.6 0.5-0.7 0.5-0.9 1.3l-0.9 5.4h-0.9l1.4-7.9h0.8l-0.2 1.3q0.4-0.8 1-1.1 0.6-0.4 1.4-0.4 0.2 0 0.6 0.1zm3 8.2q-1-0.1-1.7-0.6-0.7-0.5-1-1.4-0.3-0.9-0.2-1.9v-0.2q0.1-1.1 0.6-2.1 0.6-1 1.4-1.5 0.9-0.6 1.8-0.6 0.9 0.1 1.5 0.5 0.6 0.5 0.9 1.3 0.3 0.9 0.2 1.9l-0.1 0.5h-5.4l-0.1 0.2q-0.1 0.8 0.2 1.5 0.2 0.7 0.7 1.2 0.5 0.4 1.2 0.4 0.7 0 1.3-0.3 0.6-0.2 1-0.7l0.6 0.4q-0.6 0.7-1.3 1-0.8 0.4-1.6 0.4zm0.9-7.5q-1 0-1.7 0.7-0.8 0.7-1.1 2h4.6v-0.1q0.1-1.1-0.4-1.8-0.5-0.8-1.4-0.8zm4.8-0.6h0.9l-0.3 1.3q1.1-1.5 2.7-1.5 0.9 0.1 1.4 0.5 0.6 0.4 0.7 1.1 0.5-0.8 1.3-1.2 0.7-0.4 1.5-0.4 1.2 0.1 1.7 0.8 0.6 0.7 0.5 2l-0.1 0.2-0.8 5.1h-0.9l0.9-5.2q0-0.4 0-0.8-0.2-1.3-1.5-1.3-0.9 0-1.7 0.6-0.7 0.6-0.9 1.5l-0.9 5.2h-0.9l0.9-5.2q0.2-2-1.5-2.1-0.8 0-1.5 0.5-0.8 0.6-1 1.4l-1 5.4h-0.8zm17.6 0l-1.4 7.9h-0.9l1.4-7.9zm-0.6-2.3q0-0.5 0.6-0.6 0.3 0.1 0.4 0.2 0.1 0.1 0.2 0.4-0.1 0.3-0.2 0.4-0.2 0.2-0.5 0.2-0.6-0.1-0.5-0.6zm4.9 10.4q-0.7 0-1.3-0.3-0.6-0.3-1-0.9l-0.7 4.1h-0.9l2-11h0.8l-0.2 1.1q1-1.3 2.5-1.2 1.2 0 1.8 0.8 0.6 0.8 0.6 2.3 0 0.4 0 0.9l-0.1 0.2q-0.1 1.2-0.6 2.2-0.5 0.9-1.3 1.4-0.7 0.4-1.6 0.4zm2.6-3.9l0.1-0.3v-0.7q0.1-1.2-0.4-1.9-0.4-0.6-1.3-0.7-0.8 0-1.4 0.4-0.6 0.4-1.1 1.1l-0.6 3.9q0.2 0.6 0.7 1 0.5 0.3 1.3 0.4 1 0 1.7-0.8 0.8-0.9 1-2.4zm7.2 1.7q0.1-1-1.2-1.5l-1.3-0.4q-1.7-0.5-1.6-1.9 0-1 0.9-1.6 0.9-0.6 2.1-0.6 1.1 0 1.8 0.6 0.8 0.7 0.7 1.7h-0.8q0-0.7-0.5-1.1-0.5-0.5-1.3-0.5-0.8 0-1.4 0.4-0.6 0.4-0.6 1-0.1 1 1.1 1.4l0.9 0.2 0.5 0.2q1.7 0.6 1.6 2-0.1 1-0.8 1.6-0.8 0.6-2 0.7h-0.3q-0.8 0-1.4-0.3-0.7-0.3-1-0.9-0.4-0.5-0.3-1.2h0.8q0 0.8 0.5 1.2 0.5 0.4 1.4 0.4 0.9 0 1.5-0.3 0.6-0.4 0.7-1.1zm7.5 2l0.2-1q-0.9 1.2-2.6 1.2-1.1 0-1.7-0.8-0.5-0.8-0.4-2.2l0.9-5.1h0.9l-0.9 5.1q0 0.4 0 0.8 0.1 0.7 0.4 1 0.4 0.4 1 0.4 0.9 0.1 1.6-0.4 0.8-0.4 1-1.1l1-5.8h0.8l-1.3 7.9zm4.3-7.9h0.8l-0.2 1.3q1.1-1.5 2.7-1.4 0.8 0 1.4 0.4 0.5 0.4 0.7 1.1 0.5-0.7 1.2-1.1 0.7-0.4 1.6-0.4 1.1 0 1.7 0.7 0.5 0.7 0.4 2v0.2l-0.9 5.1h-0.8l0.8-5.1q0.1-0.5 0-0.9-0.1-1.3-1.4-1.3-0.9 0-1.7 0.6-0.7 0.6-0.9 1.5l-0.9 5.2h-0.9l0.9-5.2q0.2-2-1.5-2.1-0.9 0-1.6 0.6-0.7 0.5-1 1.3l-0.9 5.4h-0.9zm15.6 4.1v-0.1q0.2-1.3 0.7-2.2 0.5-1 1.3-1.5 0.7-0.4 1.6-0.4 0.7 0 1.3 0.3 0.6 0.3 0.9 1l0.8-4.5h0.9l-2 11.3h-0.8l0.2-1.1q-1 1.3-2.5 1.2-1.1 0-1.8-0.8-0.6-0.9-0.6-2.3 0-0.4 0-0.9zm0.9-0.1v0.1q0 0.5 0 1.1 0 1 0.4 1.6 0.5 0.5 1.3 0.6 0.8 0 1.4-0.4 0.6-0.4 1-1.1l0.7-3.7q-0.2-0.7-0.7-1.1-0.5-0.4-1.3-0.4-1.1-0.1-1.8 0.8-0.8 0.9-1 2.5zm7.1 0.2l0.1-0.3q0.1-1.1 0.7-2.1 0.5-0.9 1.4-1.4 0.8-0.5 1.8-0.5 1 0 1.7 0.5 0.7 0.6 1 1.5 0.3 0.9 0.2 2v0.1q-0.2 1.9-1.3 3-1.1 1.2-2.7 1.1-1.3 0-2.1-1-0.8-0.9-0.8-2.5zm0.9-0.1v0.1q-0.1 0.9 0.1 1.6 0.2 0.7 0.7 1.2 0.5 0.4 1.2 0.4 0.8 0 1.5-0.4 0.6-0.4 1.1-1.2 0.4-0.7 0.5-1.7v-0.2q0.2-1.4-0.4-2.3-0.6-0.9-1.6-0.9-1.2-0.1-2.1 0.9-0.8 0.9-1 2.5zm10.1-7.4l-2 11.3h-0.9l2-11.3zm0.6 7.5v-0.3q0.1-1.1 0.7-2.1 0.6-0.9 1.4-1.4 0.9-0.5 1.9-0.5 1 0 1.7 0.6 0.7 0.5 1 1.4 0.3 0.9 0.2 2v0.1q-0.2 1.9-1.4 3-1.1 1.2-2.6 1.1-1.4 0-2.2-1-0.8-0.9-0.7-2.5zm0.8-0.1v0.1q-0.1 0.9 0.2 1.6 0.2 0.8 0.7 1.2 0.5 0.4 1.2 0.4 0.8 0 1.4-0.4 0.7-0.4 1.1-1.2 0.5-0.7 0.6-1.7v-0.2q0.1-1.4-0.4-2.3-0.6-0.9-1.7-0.9-1.2-0.1-2 0.9-0.9 0.9-1.1 2.5zm12.2-4.1l-0.2 0.8q-0.2 0-0.5 0-0.9 0-1.6 0.5-0.7 0.5-0.9 1.3l-0.9 5.4h-0.9l1.4-7.9h0.8l-0.2 1.2q0.4-0.7 1-1 0.6-0.4 1.4-0.4 0.2 0 0.6 0.1zm8.6 5.9q0.1-1-1.2-1.4l-1.3-0.4q-1.7-0.6-1.6-2 0-0.9 0.9-1.6 0.8-0.6 2-0.6 1.2 0 1.9 0.7 0.7 0.6 0.7 1.7h-0.9q0.1-0.7-0.4-1.2-0.5-0.4-1.3-0.4-0.9 0-1.4 0.4-0.6 0.4-0.7 1-0.1 1 1.2 1.3l0.9 0.3 0.5 0.2q1.6 0.6 1.5 2 0 0.9-0.8 1.6-0.7 0.6-1.9 0.6h-0.3q-0.8 0-1.5-0.3-0.6-0.3-1-0.8-0.3-0.5-0.3-1.2h0.9q0 0.7 0.5 1.2 0.5 0.4 1.4 0.4 0.9 0 1.5-0.4 0.6-0.4 0.7-1.1zm4.8-5.8l-1.4 7.9h-0.9l1.4-7.9zm-0.6-2.3q0-0.5 0.6-0.6 0.3 0 0.4 0.2 0.1 0.1 0.2 0.4-0.1 0.3-0.3 0.4-0.1 0.1-0.4 0.2-0.6-0.1-0.5-0.6zm3.8 0.2h0.8l-0.3 2.1h1.6l-0.1 0.7h-1.6l-0.9 5.3v0.4q0 0.8 0.7 0.9 0.2 0 0.7-0.1v0.7q-0.4 0.1-0.9 0.1-0.8 0-1.1-0.5-0.4-0.5-0.3-1.5l0.9-5.3h-1.4l0.1-0.7h1.4z"/>
		<path id="PICTURE" fill-rule="evenodd" class="s1" d="m255 184c0 0.7-0.4 1.2-1 1.4v1.7c0.6 0.2 1 0.7 1 1.4 0 0.8-0.7 1.5-1.5 1.5-0.7 0-1.2-0.4-1.4-1h-1.7c-0.2 0.6-0.7 1-1.4 1-0.7 0-1.2-0.4-1.4-1h-1.7c-0.2 0.6-0.7 1-1.4 1-0.7 0-1.2-0.4-1.4-1h-1.7c-0.2 0.6-0.7 1-1.4 1-0.7 0-1.2-0.4-1.4-1h-1.7c-0.2 0.6-0.7 1-1.4 1-0.7 0-1.2-0.4-1.4-1h-1.7c-0.2 0.6-0.7 1-1.4 1-0.7 0-1.2-0.4-1.4-1h-1.7c-0.2 0.6-0.7 1-1.4 1-0.8 0-1.5-0.7-1.5-1.5 0-0.7 0.4-1.2 1-1.4v-1.7c-0.6-0.2-1-0.7-1-1.4 0-0.7 0.4-1.2 1-1.4v-1.7c-0.6-0.2-1-0.7-1-1.4 0-0.7 0.4-1.2 1-1.4v-1.7c-0.6-0.2-1-0.7-1-1.4 0-0.7 0.4-1.2 1-1.4v-1.7c-0.6-0.2-1-0.7-1-1.4 0-0.7 0.4-1.2 1-1.4v-1.7c-0.6-0.2-1-0.7-1-1.4 0-0.7 0.4-1.2 1-1.4v-1.7c-0.6-0.2-1-0.7-1-1.4 0-0.8 0.7-1.5 1.5-1.5 0.7 0 1.2 0.4 1.4 1h1.7c0.2-0.6 0.7-1 1.4-1 0.7 0 1.2 0.4 1.4 1h1.7c0.2-0.6 0.7-1 1.4-1 0.7 0 1.2 0.4 1.4 1h1.7c0.2-0.6 0.7-1 1.4-1 0.7 0 1.2 0.4 1.4 1h1.7c0.2-0.6 0.7-1 1.4-1 0.7 0 1.2 0.4 1.4 1h1.7c0.2-0.6 0.7-1 1.4-1 0.7 0 1.2 0.4 1.4 1h1.7c0.2-0.6 0.7-1 1.4-1 0.8 0 1.5 0.7 1.5 1.5 0 0.7-0.4 1.2-1 1.4v1.7c0.6 0.2 1 0.7 1 1.4 0 0.7-0.4 1.2-1 1.4v1.7c0.6 0.2 1 0.7 1 1.4 0 0.7-0.4 1.2-1 1.4v1.7c0.6 0.2 1 0.7 1 1.4 0 0.7-0.4 1.2-1 1.4v1.7c0.6 0.2 1 0.7 1 1.4 0 0.7-0.4 1.2-1 1.4v1.7c0.6 0.2 1 0.7 1 1.4zm-4-20h-22v22h22zm-13 16l7-8.5 4.5 7v6h-19l6-6zm-3-7c-1.7 0-3-1.3-3-3 0-1.7 1.3-3 3-3 1.7 0 3 1.3 3 3 0 1.7-1.3 3-3 3z"/>
	</g>
</svg>